<?xml version="1.0" standalone="yes"?>
<svg xmlns="http://www.w3.org/2000/svg" width="626" height="376">
<path style="fill:#dfddea; stroke:none;" d="M0 0L0 376L599 376C598.693 371.575 595.361 367.466 596.449 363.001C597.616 358.211 602.626 355.887 603.656 350.985C607.63 332.08 606.797 306.676 602.105 288C600.007 279.651 596.091 270.601 588 266.453C570.443 257.451 549.698 275.583 536 284.305C504.8 304.17 451.467 322.659 426.44 284C422.881 278.503 419.937 272.31 418.155 266C414.748 253.935 413 241.525 413 229L408 223L390.5 210L387 203L388 200C382.695 193.111 381.783 180.376 379.57 172C375.192 155.428 363.88 131.129 384.51 119.393C388.701 117.008 397.158 116.955 402 116L399 118L399 119C405.032 117.617 410.695 115.499 417 116.174C421.874 116.695 426.916 118.551 431 121.248C463.299 142.587 431.221 176.898 427 203L424 200L411 200L416 205L416 206L413 206L413 207L417 209L417 210L413 210L413 211L416 211L416 212L414 212L414 213L417 213L417 214L413 214L413 215L418 215L418 216L413 216L413 217L424 217L424 216L421 216L421 215L423 215L423 214L420 214L420 213L424 213L424 212L420 210L420 209L423 209L421 205L428 204L426 206L426 207L428 208L428 209L426 210L426 214L428 216L428 217L423 221L419 225L421 228L416 229C416 240.677 417.214 252.739 420.427 264C422.453 271.099 425.214 277.861 429.36 284C453.732 320.089 506.793 299.758 536 281.575C549.803 272.982 567.241 257.11 585 262.519C595.73 265.786 601.717 276.928 604.572 287C610.728 308.72 606.025 330.035 606.573 351.961C606.686 356.524 611.456 358.707 612.562 363.001C613.657 367.253 611.271 371.735 611 376L626 376L626 0L0 0z"/>
<path style="fill:#aea5af; stroke:none;" d="M400 115C391.423 120.522 384.108 116.687 377.193 126.171C365.563 142.12 376.392 165.478 381.501 182.001C383.04 186.98 384.107 196.654 388 200L387 203C392.494 209.309 398.101 221.923 408 223L408 227C412.904 225.086 421.522 227.574 423 221C426.417 220.554 427.993 216.831 426 214L426 210L428 208L426 207L428 204L421 205C421.887 207.523 423.037 208.608 420 209L420 210L423 210L424 212L424 213L420 213L420 214L423 214L423 215L421 215L421 216L424 216L424 217L413 217L413 216L418 216L418 215L413 215L413 214L417 214L417 213L414 213L414 212L416 212L416 211L413 211L413 210L417 210L417 209L413 207L413 206L416 206L416 205L411 200C396.004 198.805 400.212 188.661 395.218 178C385.408 157.054 375.386 132.172 403 119L403 118L399 119L399 118L402 116L400 115M408.667 116.333L409.333 116.667L408.667 116.333z"/>
<path style="fill:#f7b41d; stroke:none;" d="M410 116.465C405.814 117.219 401.701 118.675 398.17 121.069C374.543 137.084 386.739 159.933 395.688 180C397.95 185.074 396.463 194.709 401.279 198.012C406.372 201.504 420.183 201.184 425.985 199.682C434.055 197.593 431.901 184.285 434.967 178C438.989 169.754 444.812 161.331 445.826 152C448.022 131.799 431.004 112.679 410 116.465z"/>
<path style="fill:#aea5af; stroke:none;" d="M404.667 117.333L405.333 117.667L404.667 117.333M424 200L424 203L427 203L427 200L424 200z"/>
<path style="fill:#dfddea; stroke:none;" d="M400.333 213.667L400.667 214.333L400.333 213.667M403 216L404 217L403 216M412 219L412 220L423 220L423 218L412 219M409.667 225.333L410.333 225.667L409.667 225.333z"/>
<path style="fill:#605f67; stroke:none;" d="M409 228L420 228C417.462 225.096 411.538 225.096 409 228z"/>
<path style="fill:#aea5af; stroke:none;" d="M420.333 226.667L420.667 227.333L420.333 226.667z"/>
<path style="fill:#0c0c11; stroke:none;" d="M410 227L410 228L414 228C414 240.473 414.599 252.988 418.347 265C420.796 272.846 423.818 280.355 428.761 287C454.268 321.292 505.253 302.759 535 284.796C548.579 276.597 568.574 257.847 586 265.367C596.491 269.895 601.261 281.546 603.399 292C607.825 313.646 604.179 334.319 604 356C593.728 358.918 598.067 368.344 599 376L601 376L601 371C605.265 371.139 607.697 371.708 609 376L610 376C611.048 367.396 614.992 359.504 605 355C608.082 344.579 607.992 330.862 607.992 320C607.992 311.814 607.088 303.098 605.866 295C602.408 272.089 588.062 255.962 564 265.066C552.335 269.479 542.657 277.72 532 283.989C511.129 296.268 484.756 307.267 460 303.7C434.837 300.074 421.306 276.027 417.435 253C416.352 246.558 412.436 231.655 419 228L410 227z"/>
<path style="fill:#aea5af; stroke:none;" d="M410 228L411 229L410 228z"/>
<path style="fill:#605f67; stroke:none;" d="M411 228L411 229L413 234L414 234L414 228L411 228M416.667 228.333L417.333 228.667L416.667 228.333z"/>
<path style="fill:#aea5af; stroke:none;" d="M418.667 228.333L419.333 228.667L418.667 228.333z"/>
<path style="fill:#605f67; stroke:none;" d="M415 229L415 234L416 234L415 229z"/>
<path style="fill:#aea5af; stroke:none;" d="M413 234L413 241L414 241L413 234M416 240L416 244L417 244L416 240z"/>
<path style="fill:#605f67; stroke:none;" d="M414 244L414 248L415 248L414 244M416 244L416 247L417 247L416 244z"/>
<path style="fill:#aea5af; stroke:none;" d="M414.333 248.667L414.667 249.333L414.333 248.667M417 249L417 252L418 252L417 249z"/>
<path style="fill:#605f67; stroke:none;" d="M415.333 252.667L415.667 253.333L415.333 252.667M417.333 252.667L417.667 253.333L417.333 252.667z"/>
<path style="fill:#aea5af; stroke:none;" d="M415.333 254.667L415.667 255.333L415.333 254.667M418 256L419 257L418 256z"/>
<path style="fill:#605f67; stroke:none;" d="M416.333 257.667L416.667 258.333L416.333 257.667M418.333 257.667L418.667 258.333L418.333 257.667z"/>
<path style="fill:#aea5af; stroke:none;" d="M416 259L417 260L416 259M419 260L420 261L419 260z"/>
<path style="fill:#605f67; stroke:none;" d="M419.333 261.667L419.667 262.333L419.333 261.667z"/>
<path style="fill:#aea5af; stroke:none;" d="M576 261L576 262L581 262L576 261z"/>
<path style="fill:#605f67; stroke:none;" d="M417 262L418 263L417 262z"/>
<path style="fill:#aea5af; stroke:none;" d="M570.667 262.333L571.333 262.667L570.667 262.333z"/>
<path style="fill:#605f67; stroke:none;" d="M572.667 262.333L573.333 262.667L572.667 262.333M583.667 262.333L584.333 262.667L583.667 262.333z"/>
<path style="fill:#aea5af; stroke:none;" d="M585 262L586 263L585 262M417 263L418 264L417 263M567 263L568 264L567 263z"/>
<path style="fill:#605f67; stroke:none;" d="M568 263L569 264L568 263M587 263L588 264L587 263z"/>
<path style="fill:#aea5af; stroke:none;" d="M588 263L589 264L588 263M420 264L421 265L420 264M564 264L565 265L564 264z"/>
<path style="fill:#605f67; stroke:none;" d="M565 264L566 265L565 264M572.667 264.333L573.333 264.667L572.667 264.333z"/>
<path style="fill:#aea5af; stroke:none;" d="M574.667 264.333L575.333 264.667L574.667 264.333M581.667 264.333L582.333 264.667L581.667 264.333z"/>
<path style="fill:#605f67; stroke:none;" d="M583.667 264.333L584.333 264.667L583.667 264.333M589 264L590 265L589 264M418 265L419 266L418 265M420 265L421 266L420 265M562 265L563 266L562 265M568.667 265.333L569.333 265.667L568.667 265.333z"/>
<path style="fill:#aea5af; stroke:none;" d="M570 265L571 266L570 265M586 265L587 266L586 265z"/>
<path style="fill:#605f67; stroke:none;" d="M591 265L592 266L591 265z"/>
<path style="fill:#aea5af; stroke:none;" d="M418.333 266.667L418.667 267.333L418.333 266.667z"/>
<path style="fill:#605f67; stroke:none;" d="M560 266L561 267L560 266M565 266L566 267L565 266z"/>
<path style="fill:#aea5af; stroke:none;" d="M566 266L567 267L566 266M588 266L589 267L588 266z"/>
<path style="fill:#605f67; stroke:none;" d="M592 266L593 267L592 266z"/>
<path style="fill:#aea5af; stroke:none;" d="M421 267L422 268L421 267M557 267L558 268L557 267z"/>
<path style="fill:#605f67; stroke:none;" d="M558 267L559 268L558 267M563 267L564 268L563 267M590 267L591 268L590 267M593 267L594 268L593 267M419 268L420 269L419 268M421 268L422 269L421 268M556 268L557 269L556 268M561 268L562 269L561 268z"/>
<path style="fill:#aea5af; stroke:none;" d="M591 268L592 269L591 268M419.333 269.667L419.667 270.333L419.333 269.667z"/>
<path style="fill:#605f67; stroke:none;" d="M554 269L555 270L554 269z"/>
<path style="fill:#aea5af; stroke:none;" d="M559 269L560 270L559 269M592 269L593 270L592 269M422 270L423 271L422 270M552 270L553 271L552 270M557 270L558 271L557 270M593 270L594 271L593 270z"/>
<path style="fill:#605f67; stroke:none;" d="M596 270L597 271L596 270M420 271L421 272L420 271M422 271L423 272L422 271z"/>
<path style="fill:#aea5af; stroke:none;" d="M550 271L551 272L550 271z"/>
<path style="fill:#605f67; stroke:none;" d="M551 271L552 272L551 271M555 271L556 272L555 271z"/>
<path style="fill:#aea5af; stroke:none;" d="M594 271L595 272L594 271z"/>
<path style="fill:#605f67; stroke:none;" d="M597 271L598 272L597 271z"/>
<path style="fill:#aea5af; stroke:none;" d="M420 272L421 273L420 272z"/>
<path style="fill:#605f67; stroke:none;" d="M549 272L550 273L549 272M553 272L554 273L553 272z"/>
<path style="fill:#aea5af; stroke:none;" d="M554 272L555 273L554 272z"/>
<path style="fill:#605f67; stroke:none;" d="M595 272L596 273L595 272z"/>
<path style="fill:#aea5af; stroke:none;" d="M598 272L599 273L598 272z"/>
<path style="fill:#605f67; stroke:none;" d="M423 273L424 274L423 273z"/>
<path style="fill:#aea5af; stroke:none;" d="M547 273L548 274L547 273z"/>
<path style="fill:#605f67; stroke:none;" d="M548 273L549 274L548 273z"/>
<path style="fill:#aea5af; stroke:none;" d="M552 273L553 274L552 273z"/>
<path style="fill:#605f67; stroke:none;" d="M421 274L422 275L421 274M546 274L547 275L546 274M550 274L551 275L550 274z"/>
<path style="fill:#aea5af; stroke:none;" d="M596 274L597 275L596 274z"/>
<path style="fill:#605f67; stroke:none;" d="M599 274L600 275L599 274z"/>
<path style="fill:#aea5af; stroke:none;" d="M424 275L425 276L424 275z"/>
<path style="fill:#605f67; stroke:none;" d="M545 275L546 276L545 275z"/>
<path style="fill:#aea5af; stroke:none;" d="M549 275L550 276L549 275z"/>
<path style="fill:#605f67; stroke:none;" d="M597 275L598 276L597 275M422 276L423 277L422 276z"/>
<path style="fill:#aea5af; stroke:none;" d="M543 276L544 277L543 276z"/>
<path style="fill:#605f67; stroke:none;" d="M547 276L548 277L547 276M600 276L601 277L600 276z"/>
<path style="fill:#aea5af; stroke:none;" d="M422 277L423 278L422 277M425 277L426 278L425 277z"/>
<path style="fill:#605f67; stroke:none;" d="M542 277L543 278L542 277z"/>
<path style="fill:#aea5af; stroke:none;" d="M546 277L547 278L546 277z"/>
<path style="fill:#605f67; stroke:none;" d="M598 277L599 278L598 277M423 278L424 279L423 278z"/>
<path style="fill:#aea5af; stroke:none;" d="M540 278L541 279L540 278z"/>
<path style="fill:#605f67; stroke:none;" d="M544 278L545 279L544 278M601 278L602 279L601 278z"/>
<path style="fill:#aea5af; stroke:none;" d="M423 279L424 280L423 279M426 279L427 280L426 279z"/>
<path style="fill:#605f67; stroke:none;" d="M539 279L540 280L539 279z"/>
<path style="fill:#aea5af; stroke:none;" d="M543 279L544 280L543 279z"/>
<path style="fill:#605f67; stroke:none;" d="M599 279L600 280L599 279M424 280L425 281L424 280z"/>
<path style="fill:#aea5af; stroke:none;" d="M537 280L538 281L537 280z"/>
<path style="fill:#605f67; stroke:none;" d="M541 280L542 281L541 280z"/>
<path style="fill:#aea5af; stroke:none;" d="M602 280L603 281L602 280z"/>
<path style="fill:#605f67; stroke:none;" d="M427 281L428 282L427 281M536 281L537 282L536 281z"/>
<path style="fill:#aea5af; stroke:none;" d="M540 281L541 282L540 281z"/>
<path style="fill:#605f67; stroke:none;" d="M600 281L601 282L600 281M602 281L603 282L602 281z"/>
<path style="fill:#aea5af; stroke:none;" d="M425 282L426 283L425 282M428 282L429 283L428 282M534 282L535 283L534 282z"/>
<path style="fill:#605f67; stroke:none;" d="M538 282L539 283L538 282z"/>
<path style="fill:#aea5af; stroke:none;" d="M600 282L601 283L600 282z"/>
<path style="fill:#605f67; stroke:none;" d="M426 283L427 284L426 283M428 283L429 284L428 283z"/>
<path style="fill:#aea5af; stroke:none;" d="M532 283L533 284L532 283M537 283L538 284L537 283M603 283L604 284L603 283M426 284L427 285L426 284z"/>
<path style="fill:#605f67; stroke:none;" d="M429 284L430 285L429 284M531 284L532 285L531 284M535 284L536 285L535 284M601 284L602 285L601 284M603 284L604 285L603 284M427 285L428 286L427 285z"/>
<path style="fill:#aea5af; stroke:none;" d="M430 285L431 286L430 285z"/>
<path style="fill:#605f67; stroke:none;" d="M529 285L530 286L529 285M533 285L534 286L533 285z"/>
<path style="fill:#aea5af; stroke:none;" d="M534 285L535 286L534 285M601 285L602 286L601 285z"/>
<path style="fill:#605f67; stroke:none;" d="M428 286L429 287L428 286z"/>
<path style="fill:#aea5af; stroke:none;" d="M527 286L528 287L527 286M532 286L533 287L532 286M604 286L605 287L604 286M428 287L429 288L428 287z"/>
<path style="fill:#605f67; stroke:none;" d="M431 287L432 288L431 287z"/>
<path style="fill:#aea5af; stroke:none;" d="M525 287L526 288L525 287z"/>
<path style="fill:#605f67; stroke:none;" d="M530 287L531 288L530 287M602.333 287.667L602.667 288.333L602.333 287.667M604.333 287.667L604.667 288.333L604.333 287.667z"/>
<path style="fill:#aea5af; stroke:none;" d="M429 288L430 289L429 288z"/>
<path style="fill:#605f67; stroke:none;" d="M432 288L433 289L432 288z"/>
<path style="fill:#aea5af; stroke:none;" d="M523 288L524 289L523 288z"/>
<path style="fill:#605f67; stroke:none;" d="M524 288L525 289L524 288M528 288L529 289L528 288M430 289L431 290L430 289M433 289L434 290L433 289z"/>
<path style="fill:#aea5af; stroke:none;" d="M521 289L522 290L521 289z"/>
<path style="fill:#605f67; stroke:none;" d="M526 289L527 290L526 289z"/>
<path style="fill:#aea5af; stroke:none;" d="M527 289L528 290L527 289M602 289L603 290L602 289z"/>
<path style="fill:#605f67; stroke:none;" d="M431 290L432 291L431 290z"/>
<path style="fill:#aea5af; stroke:none;" d="M434 290L435 291L434 290M519 290L520 291L519 290z"/>
<path style="fill:#605f67; stroke:none;" d="M524 290L525 291L524 290z"/>
<path style="fill:#aea5af; stroke:none;" d="M525 290L526 291L525 290M605 290L606 291L605 290z"/>
<path style="fill:#605f67; stroke:none;" d="M432 291L433 292L432 291z"/>
<path style="fill:#aea5af; stroke:none;" d="M435 291L436 292L435 291M517 291L518 292L517 291z"/>
<path style="fill:#605f67; stroke:none;" d="M522 291L523 292L522 291z"/>
<path style="fill:#aea5af; stroke:none;" d="M523 291L524 292L523 291z"/>
<path style="fill:#605f67; stroke:none;" d="M605.333 291.667L605.667 292.333L605.333 291.667M433 292L434 293L433 292z"/>
<path style="fill:#aea5af; stroke:none;" d="M436 292L437 293L436 292z"/>
<path style="fill:#605f67; stroke:none;" d="M515 292L516 293L515 292M520 292L521 293L520 292z"/>
<path style="fill:#aea5af; stroke:none;" d="M521 292L522 293L521 292z"/>
<path style="fill:#605f67; stroke:none;" d="M603.333 292.667L603.667 293.333L603.333 292.667M434 293L435 294L434 293M437 293L438 294L437 293z"/>
<path style="fill:#aea5af; stroke:none;" d="M512 293L513 294L512 293z"/>
<path style="fill:#605f67; stroke:none;" d="M513 293L514 294L513 293M518 293L519 294L518 293z"/>
<path style="fill:#aea5af; stroke:none;" d="M519 293L520 294L519 293z"/>
<path style="fill:#605f67; stroke:none;" d="M435 294L436 295L435 294M438 294L439 295L438 294z"/>
<path style="fill:#aea5af; stroke:none;" d="M510 294L511 295L510 294z"/>
<path style="fill:#605f67; stroke:none;" d="M511 294L512 295L511 294M516 294L517 295L516 294z"/>
<path style="fill:#aea5af; stroke:none;" d="M603 294L604 295L603 294z"/>
<path style="fill:#605f67; stroke:none;" d="M436 295L437 296L436 295z"/>
<path style="fill:#aea5af; stroke:none;" d="M440 295L441 296L440 295M507 295L508 296L507 295z"/>
<path style="fill:#605f67; stroke:none;" d="M508 295L509 296L508 295z"/>
<path style="fill:#aea5af; stroke:none;" d="M514 295L515 296L514 295M606.333 295.667L606.667 296.333L606.333 295.667M437 296L438 297L437 296z"/>
<path style="fill:#605f67; stroke:none;" d="M441 296L442 297L441 296z"/>
<path style="fill:#aea5af; stroke:none;" d="M505 296L506 297L505 296z"/>
<path style="fill:#605f67; stroke:none;" d="M511 296L512 297L511 296z"/>
<path style="fill:#aea5af; stroke:none;" d="M512 296L513 297L512 296M438 297L439 298L438 297M443 297L444 298L443 297M502 297L503 298L502 297z"/>
<path style="fill:#605f67; stroke:none;" d="M503 297L504 298L503 297M508 297L509 298L508 297z"/>
<path style="fill:#aea5af; stroke:none;" d="M509 297L510 298L509 297z"/>
<path style="fill:#605f67; stroke:none;" d="M604 297L604 300L605 300L604 297M606 297L606 300L607 300L606 297M440 298L441 299L440 298M444 298L445 299L444 298z"/>
<path style="fill:#aea5af; stroke:none;" d="M499 298L500 299L499 298z"/>
<path style="fill:#605f67; stroke:none;" d="M500 298L501 299L500 298M506 298L507 299L506 298z"/>
<path style="fill:#aea5af; stroke:none;" d="M507 298L508 299L507 298M441 299L442 300L441 299z"/>
<path style="fill:#605f67; stroke:none;" d="M442 299L443 300L442 299M446 299L447 300L446 299z"/>
<path style="fill:#aea5af; stroke:none;" d="M447 299L448 300L447 299M496 299L497 300L496 299z"/>
<path style="fill:#605f67; stroke:none;" d="M497 299L498 300L497 299M503 299L504 300L503 299z"/>
<path style="fill:#aea5af; stroke:none;" d="M504 299L505 300L504 299M443 300L444 301L443 300z"/>
<path style="fill:#605f67; stroke:none;" d="M448 300L449 301L448 300z"/>
<path style="fill:#aea5af; stroke:none;" d="M449 300L450 301L449 300M492 300L493 301L492 300z"/>
<path style="fill:#605f67; stroke:none;" d="M493.667 300.333L494.333 300.667L493.667 300.333M500 300L501 301L500 300z"/>
<path style="fill:#aea5af; stroke:none;" d="M501 300L502 301L501 300M604 300L604 303L605 303L604 300M445 301L446 302L445 301z"/>
<path style="fill:#605f67; stroke:none;" d="M451 301L452 302L451 301z"/>
<path style="fill:#aea5af; stroke:none;" d="M452 301L453 302L452 301M488 301L489 302L488 301z"/>
<path style="fill:#605f67; stroke:none;" d="M489.667 301.333L490.333 301.667L489.667 301.333M497 301L498 302L497 301z"/>
<path style="fill:#aea5af; stroke:none;" d="M498 301L499 302L498 301M447 302L448 303L447 302z"/>
<path style="fill:#605f67; stroke:none;" d="M448 302L449 303L448 302M454 302L455 303L454 302z"/>
<path style="fill:#aea5af; stroke:none;" d="M455.667 302.333L456.333 302.667L455.667 302.333M483.667 302.333L484.333 302.667L483.667 302.333z"/>
<path style="fill:#605f67; stroke:none;" d="M485 302L486 303L485 302M494 302L495 303L494 302z"/>
<path style="fill:#aea5af; stroke:none;" d="M495 302L496 303L495 302M607 302L607 307L608 307L607 302M449 303L450 304L449 303z"/>
<path style="fill:#605f67; stroke:none;" d="M450.667 303.333L451.333 303.667L450.667 303.333M458.667 303.333L459.333 303.667L458.667 303.333z"/>
<path style="fill:#aea5af; stroke:none;" d="M460 303L460 304L463 304L460 303M475 303L475 304L478 304L475 303z"/>
<path style="fill:#605f67; stroke:none;" d="M478 303L478 304L481 304L478 303M490 303L491 304L490 303z"/>
<path style="fill:#aea5af; stroke:none;" d="M491 303L492 304L491 303M452.667 304.333L453.333 304.667L452.667 304.333z"/>
<path style="fill:#605f67; stroke:none;" d="M454 304L455 305L454 304M485.667 304.333L486.333 304.667L485.667 304.333z"/>
<path style="fill:#aea5af; stroke:none;" d="M487 304L488 305L487 304M456.667 305.333L457.333 305.667L456.667 305.333z"/>
<path style="fill:#605f67; stroke:none;" d="M458.667 305.333L459.333 305.667L458.667 305.333M478 305L478 306L481 306L478 305z"/>
<path style="fill:#aea5af; stroke:none;" d="M481.667 305.333L482.333 305.667L481.667 305.333M462 306L462 307L476 307L462 306z"/>
<path style="fill:#605f67; stroke:none;" d="M605 307L605 314L606 314L605 307M607 307L607 314L608 314L607 307z"/>
<path style="fill:#aea5af; stroke:none;" d="M605 314L605 326L606 326L605 314z"/>
<path style="fill:#605f67; stroke:none;" d="M605 326L605 335L606 335L605 326M607 326L607 335L608 335L607 326z"/>
<path style="fill:#aea5af; stroke:none;" d="M607 335L607 340L608 340L607 335M604 340L604 344L605 344L604 340z"/>
<path style="fill:#605f67; stroke:none;" d="M604 344L604 349L605 349L604 344M606 344L606 349L607 349L606 344z"/>
<path style="fill:#aea5af; stroke:none;" d="M606 349L606 352L607 352L606 349M603 352L602 356L603 356L603 352z"/>
<path style="fill:#605f67; stroke:none;" d="M605 354L606 355L605 354M603 355L604 356L603 355z"/>
<path style="fill:#aea5af; stroke:none;" d="M606 355L607 356L606 355M600 356L601 357L600 356z"/>
<path style="fill:#605f67; stroke:none;" d="M608 356L609 357L608 356M599 357L600 358L599 357M598 358L599 359L598 358z"/>
<path style="fill:#aea5af; stroke:none;" d="M597 359L598 360L597 359z"/>
<path style="fill:#605f67; stroke:none;" d="M611 359L612 360L611 359z"/>
<path style="fill:#aea5af; stroke:none;" d="M596 361L596 369L597 369L596 361M612 361L613 362L612 361z"/>
<path style="fill:#605f67; stroke:none;" d="M612 362L612 369L613 369L612 362z"/>
<path style="fill:#aea5af; stroke:none;" d="M612 369L613 370L612 369M597 370L598 371L597 370z"/>
<path style="fill:#605f67; stroke:none;" d="M611 370L612 371L611 370M601 371L602 372L601 371z"/>
<path style="fill:#aea5af; stroke:none;" d="M602 371L601 376L602 376L604 372L602 371z"/>
<path style="fill:#605f67; stroke:none;" d="M604.667 371.333L605.333 371.667L604.667 371.333z"/>
<path style="fill:#aea5af; stroke:none;" d="M606.667 371.333L607.333 371.667L606.667 371.333z"/>
<path style="fill:#605f67; stroke:none;" d="M610 371L611 372L610 371z"/>
<path style="fill:#dfddea; stroke:none;" d="M602 372L602 376L608 376L608 372L602 372z"/>
<path style="fill:#605f67; stroke:none;" d="M608 372L608 376L609 376L608 372z"/>
<path style="fill:#aea5af; stroke:none;" d="M610 372L610 376L611 376L610 372z"/>
</svg>
